<?xml version="1.0" encoding="utf-8"?>
<!-- Generator: Adobe Illustrator 19.0.0, SVG Export Plug-In . SVG Version: 6.00 Build 0)  -->
<svg version="1.1" id="Layer_1" xmlns="http://www.w3.org/2000/svg" xmlns:xlink="http://www.w3.org/1999/xlink" x="0px" y="0px"
	 viewBox="0 0 20 20" style="enable-background:new 0 0 20 20;" xml:space="preserve">
<style type="text/css">
	.st0{fill:none;stroke:#676767;stroke-width:1.5;stroke-linecap:round;stroke-linejoin:round;stroke-miterlimit:10;}
</style>
<g id="XMLID_45_">
	<path id="XMLID_11_" class="st0" d="M19,10.4c0,4.5,0,8,0,8c0,0.3-0.2,0.6-0.5,0.6H1.5C1.2,19,1,18.7,1,18.4c0,0,0-3.6,0-8"/>
	<path id="XMLID_4_" class="st0" d="M17,2.2h1.6c0.3,0,0.4,0.3,0.4,0.6c0,0,0,3.2,0,4.4H1C1,6,1,2.7,1,2.7c0-0.3,0.2-0.6,0.5-0.6H3"
		/>
	<path id="XMLID_3_" class="st0" d="M7.8,2.2c2.8,0,2.1,0,4.5,0"/>
	<line id="XMLID_2_" class="st0" x1="5.4" y1="1" x2="5.4" y2="3.3"/>
	<line id="XMLID_12_" class="st0" x1="14.6" y1="1" x2="14.6" y2="3.3"/>
</g>
</svg>
