<?xml version="1.0" encoding="utf-8"?>
<!-- Generator: Adobe Illustrator 19.0.0, SVG Export Plug-In . SVG Version: 6.00 Build 0)  -->
<svg version="1.1" id="Layer_1" xmlns="http://www.w3.org/2000/svg" xmlns:xlink="http://www.w3.org/1999/xlink" x="0px" y="0px"
	 viewBox="0 0 80 80" style="enable-background:new 0 0 80 80;" xml:space="preserve">
<style type="text/css">
	.st0{fill:none;stroke:#FFFFFF;stroke-width:3;stroke-linecap:round;stroke-linejoin:round;stroke-miterlimit:10;}
</style>
<line id="XMLID_3_" class="st0" x1="9.4" y1="38.8" x2="9.4" y2="22.7"/>
<path id="XMLID_5_" class="st0" d="M63.4,52.9H47.7c-10.6,0-19.3-8.6-19.3-19.3V22.7"/>
<path id="XMLID_6_" class="st0" d="M63.4,72H42.6C24.2,72,9.4,57.2,9.4,38.8"/>
<line id="XMLID_1_" class="st0" x1="4.2" y1="22.7" x2="35.1" y2="22.7"/>
<line id="XMLID_7_" class="st0" x1="4.2" y1="16.1" x2="35.1" y2="16.1"/>
<line id="XMLID_2_" class="st0" x1="63.4" y1="48.5" x2="63.4" y2="76.8"/>
<line id="XMLID_8_" class="st0" x1="70" y1="48.5" x2="70" y2="76.8"/>
<line id="XMLID_4_" class="st0" x1="18.2" y1="61.4" x2="22.1" y2="55.4"/>
<line id="XMLID_9_" class="st0" x1="22.1" y1="55.4" x2="28.5" y2="58.4"/>
<line id="XMLID_10_" class="st0" x1="28.5" y1="58.4" x2="29.4" y2="51.6"/>
<line id="XMLID_11_" class="st0" x1="9.4" y1="61.4" x2="4.2" y2="62.6"/>
<line id="XMLID_12_" class="st0" x1="13.3" y1="65.3" x2="9.4" y2="70.5"/>
<line id="XMLID_13_" class="st0" x1="18.2" y1="67.9" x2="18.2" y2="73.9"/>
<line id="XMLID_14_" class="st0" x1="9.4" y1="16.1" x2="9.4" y2="5.8"/>
<line id="XMLID_15_" class="st0" x1="28.5" y1="15" x2="28.5" y2="5.8"/>
<line id="XMLID_16_" class="st0" x1="70" y1="52.9" x2="77.1" y2="52.9"/>
<line id="XMLID_17_" class="st0" x1="70" y1="72" x2="77.1" y2="72"/>
</svg>
