<?xml version="1.0" encoding="utf-8"?>
<!-- Generator: Adobe Illustrator 19.0.0, SVG Export Plug-In . SVG Version: 6.00 Build 0)  -->
<svg version="1.1" id="Layer_1" xmlns="http://www.w3.org/2000/svg" xmlns:xlink="http://www.w3.org/1999/xlink" x="0px" y="0px"
	 viewBox="2 -2 24 24" style="enable-background:new 2 -2 24 24;" xml:space="preserve">
<style type="text/css">
	.st0{fill:#FFFFFF;}
	.st1{fill:none;stroke:#FFFFFF;stroke-width:1.5;stroke-linecap:round;stroke-miterlimit:10;}
</style>
<path class="st0" d="M13.3,11C13.4,11.1,13.4,11.1,13.3,11c0.3,0.4,0.7,0.6,1.1,0.6c0.8,0,1.4-0.6,1.4-1.4c0-0.4-0.2-0.8-0.5-1
	l-0.1-0.1L9.7,4.9c-0.2-0.1-0.4-0.1-0.6,0C8.9,5,8.9,5.3,9.1,5.5L13.3,11z"/>
<path class="st1" d="M14,3v-4c6.1,0,11,4.9,11,11s-4.9,11-11,11S3,16.1,3,10c0-3,1.2-5.8,3.2-7.8"/>
</svg>
