<?xml version="1.0" encoding="utf-8"?>
<!-- Generator: Adobe Illustrator 19.0.0, SVG Export Plug-In . SVG Version: 6.00 Build 0)  -->
<svg version="1.1" id="Layer_1" xmlns="http://www.w3.org/2000/svg" xmlns:xlink="http://www.w3.org/1999/xlink" x="0px" y="0px"
	 viewBox="0 0 80 80" style="enable-background:new 0 0 80 80;" xml:space="preserve">
<style type="text/css">
	.st0{fill:none;stroke:#FFFFFF;stroke-width:3;stroke-linecap:round;stroke-linejoin:round;stroke-miterlimit:10;}
</style>
<line id="XMLID_3_" class="st0" x1="9.4" y1="38.8" x2="9.4" y2="22.7"/>
<path id="XMLID_18_" class="st0" d="M31,43.2c-1.6-2.8-2.5-6.1-2.5-9.6V22.7"/>
<path id="XMLID_13_" class="st0" d="M63.4,52.9H47.7c-3.9,0-7.4-1.1-10.5-3.1"/>
<path id="XMLID_19_" class="st0" d="M12.3,52.6c-1.9-4.2-3-8.9-3-13.8"/>
<path id="XMLID_5_" class="st0" d="M63.4,72H42.6c-8.1,0-15.5-2.9-21.2-7.7"/>
<line id="XMLID_1_" class="st0" x1="4.2" y1="22.7" x2="35.1" y2="22.7"/>
<line id="XMLID_7_" class="st0" x1="4.2" y1="16.1" x2="35.1" y2="16.1"/>
<line id="XMLID_2_" class="st0" x1="63.4" y1="48.5" x2="63.4" y2="76.8"/>
<line id="XMLID_8_" class="st0" x1="70" y1="48.5" x2="70" y2="76.8"/>
<line id="XMLID_14_" class="st0" x1="9.4" y1="16.1" x2="9.4" y2="5.8"/>
<line id="XMLID_15_" class="st0" x1="28.5" y1="15" x2="28.5" y2="5.8"/>
<line id="XMLID_16_" class="st0" x1="70" y1="52.9" x2="77.1" y2="52.9"/>
<line id="XMLID_17_" class="st0" x1="70" y1="72" x2="77.1" y2="72"/>
<line id="XMLID_4_" class="st0" x1="31" y1="43.2" x2="21.7" y2="44.2"/>
<line id="XMLID_9_" class="st0" x1="21.7" y1="44.2" x2="21.4" y2="54.1"/>
<line id="XMLID_10_" class="st0" x1="21.4" y1="54.1" x2="12.3" y2="52.6"/>
<line id="XMLID_11_" class="st0" x1="21.4" y1="64.4" x2="28.1" y2="58.7"/>
<line id="XMLID_12_" class="st0" x1="28.1" y1="58.7" x2="37.3" y2="49.9"/>
</svg>
