<?xml version="1.0" encoding="utf-8"?>
<!-- Generator: Adobe Illustrator 19.0.0, SVG Export Plug-In . SVG Version: 6.00 Build 0)  -->
<svg version="1.1" id="Layer_1" xmlns="http://www.w3.org/2000/svg" xmlns:xlink="http://www.w3.org/1999/xlink" x="0px" y="0px"
	 viewBox="0 0 80 80" style="enable-background:new 0 0 80 80;" xml:space="preserve">
<style type="text/css">
	.st0{fill:none;stroke:#FFFFFF;stroke-width:3;stroke-linecap:round;stroke-linejoin:round;stroke-miterlimit:10;}
</style>
<line id="XMLID_3_" class="st0" x1="9.4" y1="38.8" x2="9.4" y2="22.7"/>
<path id="XMLID_13_" class="st0" d="M31.5,44c-1.9-3-3-6.5-3-10.3V22.7"/>
<path id="XMLID_2_" class="st0" d="M75.4,52.9"/>
<path id="XMLID_6_" class="st0" d="M75.4,72H42.6C24.2,72,9.4,57.2,9.4,38.8"/>
<line id="XMLID_1_" class="st0" x1="4.2" y1="22.7" x2="35.1" y2="22.7"/>
<line id="XMLID_7_" class="st0" x1="4.2" y1="16.1" x2="35.1" y2="16.1"/>
<line id="XMLID_14_" class="st0" x1="9.4" y1="16.1" x2="9.4" y2="5.8"/>
<line id="XMLID_15_" class="st0" x1="28.5" y1="15" x2="28.5" y2="5.8"/>
<line id="XMLID_4_" class="st0" x1="2" y1="34.7" x2="78" y2="34.7"/>
<line id="XMLID_9_" class="st0" x1="56.7" y1="64.3" x2="56.7" y2="8.5"/>
<polyline id="XMLID_11_" class="st0" points="69.3,15.3 56.7,27.9 44.2,15.3 "/>
<polyline id="XMLID_12_" class="st0" points="69.3,4.3 56.7,16.8 44.2,4.3 "/>
<line id="XMLID_8_" class="st0" x1="56.7" y1="42.1" x2="71.4" y2="42.1"/>
<path id="XMLID_10_" class="st0" d="M35.1,52.9c0-2.7,2.2-4.9,4.9-4.9h0.7h16"/>
<path id="XMLID_16_" class="st0" d="M71,42.1c2.4,0,4.4,2,4.4,4.4c0,2.4-2,4.4-4.4,4.4"/>
<line id="XMLID_5_" class="st0" x1="44.2" y1="48" x2="44.2" y2="57.5"/>
<line id="XMLID_17_" class="st0" x1="56.7" y1="53.5" x2="63.3" y2="53.5"/>
</svg>
